Coordinates
version=1
nRows=17
nColumns=24
inDegrees=yes

Units are S.I. units (second, meters, Newtons, ...)
Angles are in degrees.

endheader
time	pelvis_tilt	pelvis_list	pelvis_rotation	pelvis_tx	pelvis_ty	pelvis_tz	hip_flexion_r	hip_adduction_r	hip_rotation_r	knee_angle_r	ankle_angle_r	subtalar_angle_r	mtp_angle_r	hip_flexion_l	hip_adduction_l	hip_rotation_l	knee_angle_l	ankle_angle_l	subtalar_angle_l	mtp_angle_l	lumbar_extension	lumbar_bending	lumbar_rotation
      5.61000000	     43.35901162	      4.40213720	      0.05938611	     -0.81399515	      1.01819784	     -0.28395717	     11.89433179	    -15.23651596	      7.46446974	    -57.03394959	    -11.35546354	     13.32196205	      0.00000000	     14.52626129	    -11.41319678	     -2.90284806	    -58.35406445	    -21.89347610	     14.48610996	      0.00000000	    -32.80613013	    -13.13511102	      0.85781158
      5.62000000	     43.35709238	      4.39041912	      0.03143039	     -0.81403218	      1.01831427	     -0.28389458	     11.82688238	    -15.18328814	      7.46236098	    -56.46838108	    -11.29135222	     13.21438620	      0.00000000	     14.44897048	    -11.46790011	     -3.02887583	    -58.21222464	    -21.78764522	     14.36563181	      0.00000000	    -32.80590230	    -13.13329196	      0.87946466
      5.63000000	     43.36370566	      4.38554064	     -0.00502248	     -0.81404548	      1.01840402	     -0.28389263	     11.74948591	    -15.14620485	      7.44893503	    -55.85799973	    -11.19259611	     13.04172816	      0.00000000	     14.39155969	    -11.49421943	     -3.08358198	    -58.15343323	    -21.77035508	     14.30185385	      0.00000000	    -32.81046760	    -13.13521870	      0.90419061
      5.64000000	     43.37779302	      4.38389149	     -0.03802889	     -0.81404164	      1.01843671	     -0.28391519	     11.66887937	    -15.11612192	      7.43374779	    -55.22574045	    -11.11327532	     12.85882942	      0.00000000	     14.36206702	    -11.49459982	     -3.07498009	    -58.15707499	    -21.82849537	     14.29825310	      0.00000000	    -32.81948675	    -13.13718995	      0.92751039
      5.65000000	     43.39384927	      4.38341185	     -0.05712478	     -0.81404452	      1.01843717	     -0.28394284	     11.59123507	    -15.08403971	      7.42483456	    -54.58681821	    -11.09271185	     12.71940348	      0.00000000	     14.35752718	    -11.48245245	     -3.02718665	    -58.18891336	    -21.92345069	     14.33773997	      0.00000000	    -32.83159869	    -13.13521421	      0.94485965
      5.66000000	     43.40553564	      4.38165295	     -0.05724963	     -0.81405775	      1.01842712	     -0.28396526	     11.51992488	    -15.04478561	      7.42868889	    -53.94634854	    -11.14335232	     12.65625055	      0.00000000	     14.36817079	    -11.47443173	     -2.96881688	    -58.21885886	    -22.00922234	     14.39243739	      0.00000000	    -32.84455628	    -13.12709110	      0.95305461
      5.67000000	     43.40914619	      4.37518592	     -0.04085432	     -0.81407055	      1.01841442	     -0.28395916	     11.45481643	    -14.99775026	      7.44814683	    -53.30224120	    -11.25015270	     12.67088581	      0.00000000	     14.38350503	    -11.48249097	     -2.92312510	    -58.23081432	    -22.05102512	     14.43593660	      0.00000000	    -32.85591832	    -13.11312307	      0.95157964
      5.68000000	     43.40494945	      4.36186052	     -0.01705470	     -0.81408330	      1.01839937	     -0.28390654	     11.39373465	    -14.94477678	      7.47999922	    -52.64997759	    -11.38026614	     12.73580563	      0.00000000	     14.39636244	    -11.50984343	     -2.90244324	    -58.22366004	    -22.03681245	     14.45276057	      0.00000000	    -32.86406295	    -13.09564232	      0.94317600
      5.69000000	     43.39635513	      4.34270118	      0.00242687	     -0.81410067	      1.01838202	     -0.28382490	     11.33484785	    -14.88809907	      7.51564774	    -51.98638276	    -11.49809322	     12.80760559	      0.00000000	     14.40381037	    -11.55164882	     -2.90751293	    -58.20621683	    -21.97826615	     14.44189953	      0.00000000	    -32.86894173	    -13.07792826	      0.93329427
      5.70000000	     43.38786592	      4.32123026	      0.00854817	     -0.81411860	      1.01836947	     -0.28375808	     11.27816425	    -14.82995075	      7.54535699	    -51.31120928	    -11.57923860	     12.84522498	      0.00000000	     14.40597507	    -11.59879822	     -2.93064745	    -58.19022752	    -21.90249344	     14.41416610	      0.00000000	    -32.87203000	    -13.06302361	      0.92838475
      5.71000000	     43.38273961	      4.30072178	     -0.00133899	     -0.81413402	      1.01836433	     -0.28371769	     11.22482074	    -14.77340678	      7.56390721	    -50.62712112	    -11.61810372	     12.82611782	      0.00000000	     14.40457584	    -11.64242922	     -2.96063870	    -58.18452386	    -21.83912418	     14.38555591	      0.00000000	    -32.87544940	    -13.05283542	      0.93355202
      5.72000000	     43.38197911	      4.28310226	     -0.02325526	     -0.81414691	      1.01835953	     -0.28368253	     11.17548201	    -14.72158115	      7.57378024	    -49.93890162	    -11.62705032	     12.75442357	      0.00000000	     14.40210512	    -11.67724230	     -2.98729184	    -58.19202769	    -21.80858551	     14.36996599	      0.00000000	    -32.88079464	    -13.04774612	      0.95050749
      5.73000000	     43.38445033	      4.26954207	     -0.04948952	     -0.81415726	      1.01835240	     -0.28364997	     11.12915517	    -14.67563507	      7.58399096	    -49.25273479	    -11.62856942	     12.65846884	      0.00000000	     14.40132469	    -11.70256749	     -3.00431938	    -58.20986903	    -21.81591341	     14.37421962	      0.00000000	    -32.88835191	    -13.04678611	      0.97678864
      5.74000000	     43.38735226	      4.25964079	     -0.07226730	     -0.81416926	      1.01834384	     -0.28361995	     11.08305635	    -14.63496499	      7.60593243	    -48.57560997	    -11.64428648	     12.57913264	      0.00000000	     14.40448877	    -11.72136795	     -3.01026186	    -58.23180736	    -21.85151213	     14.39681623	      0.00000000	    -32.89702924	    -13.04819204	      1.00668636
      5.75000000	     43.38783854	      4.25125787	     -0.08659565	     -0.81418827	      1.01833007	     -0.28357442	     11.03466826	    -14.59816080	      7.64771148	    -47.91397240	    -11.68541021	     12.55419903	      0.00000000	     14.41226757	    -11.73815219	     -3.00771879	    -58.25155126	    -21.89730398	     14.43005555	      0.00000000	    -32.90485907	    -13.05004498	      1.03349335
      5.76000000	     43.38525330	      4.24255543	     -0.09165634	     -0.81420877	      1.01831351	     -0.28351214	     10.98477376	    -14.56291346	      7.70933270	    -47.27199098	    -11.74831761	     12.60506896	      0.00000000	     14.42309764	    -11.75679972	     -3.00150681	    -58.26546448	    -21.93491655	     14.46395572	      0.00000000	    -32.90977790	    -13.05078692	      1.05209705
      5.77000000	     43.38112936	      4.23278546	     -0.09032772	     -0.81422024	      1.01830229	     -0.28344959	     10.93744993	    -14.52699668	      7.78235975	    -46.65115899	    -11.81664494	     12.73059133	      0.00000000	     14.43387178	    -11.77904411	     -2.99651978	    -58.27356332	    -21.95241877	     14.49009651	      0.00000000	    -32.91037047	    -13.04950655	      1.06079214
